<svg data-v-46f7d62d="" version="1.1" viewBox="0 0 1024 1024" class="more svg-icon svg-fill" style="width: 16px; height: 16px;"><defs></defs><path pid="0" d="M512 947.2C271.36 947.2 76.8 752.64 76.8 512S271.36 76.8 512 76.8 947.2 271.36 947.2 512 752.64 947.2 512 947.2M512 0C230.4 0 0 230.4 0 512s230.4 512 512 512 512-230.4 512-512S793.6 0 512 0m256 435.2c-43.52 0-76.8 33.28-76.8 76.8 0 43.52 33.28 76.8 76.8 76.8 43.52 0 76.8-33.28 76.8-76.8 0-43.52-33.28-76.8-76.8-76.8m-512 0c-43.52 0-76.8 33.28-76.8 76.8 0 43.52 33.28 76.8 76.8 76.8 43.52 0 76.8-33.28 76.8-76.8 0-43.52-33.28-76.8-76.8-76.8m256 0c-43.52 0-76.8 33.28-76.8 76.8 0 43.52 33.28 76.8 76.8 76.8 43.52 0 76.8-33.28 76.8-76.8 0-43.52-33.28-76.8-76.8-76.8" _fill="#5F84FF"></path></svg>