<?xml version="1.0" standalone="no"?><!DOCTYPE svg PUBLIC "-//W3C//DTD SVG 1.1//EN" "http://www.w3.org/Graphics/SVG/1.1/DTD/svg11.dtd"><svg t="1659514992449" class="icon" viewBox="0 0 1024 1024" version="1.1" xmlns="http://www.w3.org/2000/svg" p-id="5933" xmlns:xlink="http://www.w3.org/1999/xlink" width="48" height="48"><defs><style type="text/css">@font-face { font-family: feedback-iconfont; src: url("//at.alicdn.com/t/font_1031158_u69w8yhxdu.woff2?t=1630033759944") format("woff2"), url("//at.alicdn.com/t/font_1031158_u69w8yhxdu.woff?t=1630033759944") format("woff"), url("//at.alicdn.com/t/font_1031158_u69w8yhxdu.ttf?t=1630033759944") format("truetype"); }
</style></defs><path d="M772.424568 124.087882c10.798945 0 19.998047 11.798848 19.998047 25.697491v750.226735h-559.945318V149.885363c0-13.998633 9.199102-25.69749 19.998047-25.697491h519.949224m0-60.094131h-519.949224c-44.195684 0-79.992188 38.39625-79.992188 85.691632v750.226735h-107.989454v59.994141h895.912508v-59.994141h-107.989454V149.885363c0-47.395372-35.796504-85.791622-79.992188-85.791622z"  opacity=".502" p-id="5934" data-spm-anchor-id="a313x.7781069.0.i9" class="selected"></path><path d="M682.433356 244.076164v79.992189h-339.9668v-79.992189h339.9668m59.994141-59.994141h-459.955082v199.980471h459.955082v-199.980471z"  p-id="5935"></path><path d="M392.461674 683.033298h119.988282v-239.976565z" p-id="5936"></path><path d="M512.449956 613.040133v239.976565l119.988282-239.976565z" p-id="5937"></path></svg>